<svg xmlns="http://www.w3.org/2000/svg" viewBox="0 0 36 36"><defs><style>.cls-1{fill:#a783ff;}.cls-2{fill:#fff;}.cls-3{fill:#ff2a1a;}</style></defs><title>图层 1</title><g id="图层_2" data-name="图层 2"><g id="图层_1-2" data-name="图层 1"><path class="cls-1" d="M0,17.82a8.41,8.41,0,0,1,2.38-5.74c.34-.37.64-.79,1-1.18a49.27,49.27,0,0,1,7.24-7.27c.77-.63,1.51-1.3,2.29-1.91a7.93,7.93,0,0,1,4-1.65A8.49,8.49,0,0,1,24,2.4c.78.71,1.63,1.35,2.43,2a47.93,47.93,0,0,1,7,7.33c.37.48.8.91,1.14,1.41a8.33,8.33,0,0,1,1.4,6.13,8.62,8.62,0,0,1-2.29,4.63c-.69.74-1.32,1.55-2,2.33A48.19,48.19,0,0,1,27,31c-.87.77-1.78,1.49-2.68,2.23-.51.42-1,.88-1.55,1.25a8.31,8.31,0,0,1-6.14,1.37,8.47,8.47,0,0,1-4.6-2.29c-.33-.31-.72-.57-1.08-.86a44.62,44.62,0,0,1-6.27-6.1c-.73-.84-1.45-1.7-2.17-2.56a18.17,18.17,0,0,1-1.23-1.55A8.37,8.37,0,0,1,0,17.82Z"/><path class="cls-2" d="M15.39,20.61v6.18a1,1,0,0,0,1.07,1.11c1,0,2.06,0,3.08,0a.63.63,0,0,0,.49-.2,2,2,0,0,0,.58-1.48v-5.4c0-.17,0-.21.21-.21H27a1,1,0,0,0,.93-.92c0-1.09,0-2.18,0-3.27a1,1,0,0,0-.21-.62,1.1,1.1,0,0,0-.94-.4H20.61V9.24A1,1,0,0,0,19.46,8.1H16.54a1.38,1.38,0,0,0-.57.11,1,1,0,0,0-.58,1v6.17H9.22A1,1,0,0,0,8.1,16.51v3a1.11,1.11,0,0,0,.21.7,1.09,1.09,0,0,0,.95.4h6.13Z"/><circle class="cls-3" cx="25.75" cy="10.26" r="5"/></g></g></svg>