<svg xmlns="http://www.w3.org/2000/svg" viewBox="0 0 30 30"><defs><style>.cls-1{fill:#cd6eff;}.cls-2{fill:#fff;}</style></defs><title>图层 1</title><g id="图层_2" data-name="图层 2"><g id="图层_1-2" data-name="图层 1"><path class="cls-1" d="M25,30h2.39A2.59,2.59,0,0,0,30,27.4V10a2.6,2.6,0,0,0-1.3-2.25L15.91.35a2.58,2.58,0,0,0-2.64,0l-12,7.38A2.61,2.61,0,0,0,0,10V27.4A2.59,2.59,0,0,0,2.59,30H5"/><path class="cls-2" d="M5.4,30V18.73H10V9.61H20v9.12H24.6V30"/><path class="cls-1" d="M6.74,21.45V30h7.35V21.52H12.2v2.41H8.63V21.45Zm9.17,0V30h7.35V21.52H21.37v2.41H17.8V21.45Zm-4.61-10v7.32h7.35V11.4H16.76v2.14H13.19V11.4Z"/></g></g></svg>