<svg id="图层_1" data-name="图层 1" xmlns="http://www.w3.org/2000/svg" viewBox="0 0 30 30"><defs><style>.cls-1{fill:#ff7550;}.cls-2{fill:#fff;}</style></defs><title>2_1</title><path class="cls-1" d="M25,30.07h2.39A2.59,2.59,0,0,0,30,27.47V10.07a2.61,2.61,0,0,0-1.3-2.26L15.91.42a2.58,2.58,0,0,0-2.64,0l-12,7.38A2.62,2.62,0,0,0,0,10.05V27.47a2.59,2.59,0,0,0,2.59,2.6H5" transform="translate(0 -0.07)"/><path class="cls-2" d="M5.4,30.07V18.8H10V9.68H20V18.8H24.6V30.07" transform="translate(0 -0.07)"/><path class="cls-1" d="M6.74,21.52v8.55h7.35V21.59H12.2V24H8.63V21.52Zm9.17,0v8.55h7.35V21.59H21.37V24H17.8V21.52Zm-4.61-10v7.32h7.35V11.47H16.76v2.14H13.19V11.47Z" transform="translate(0 -0.07)"/></svg>